<svg width="163" height="45" viewBox="0 0 163 45" fill="none" xmlns="http://www.w3.org/2000/svg">
<path d="M43.4169 4.49658L35.2294 5.92658L40.9377 12.4166L45.0419 11.6832L43.4169 4.49658ZM29.1044 6.98992L25.0002 7.70492L30.7294 14.1766L34.8127 13.4616L29.1044 6.98992ZM18.8961 8.74992L14.7919 9.50158L20.5211 15.9732L24.6044 15.2582L18.8961 8.74992ZM8.66689 10.5832L6.62523 10.9316C5.54269 11.1219 4.59023 11.6825 3.97698 12.4903C3.36373 13.2981 3.13981 14.287 3.35439 15.2399L4.16689 18.8332L14.3752 17.0549L8.66689 10.5832ZM4.16689 18.8332V37.1666C4.16689 39.2016 6.04189 40.8333 8.33356 40.8333H41.6669C43.9794 40.8333 45.8336 39.2016 45.8336 37.1666V18.8332H4.16689Z" fill="white"/>
<path d="M65.0264 12.85C64.5597 12.95 64.193 13.1333 63.9264 13.4C63.8597 13.4667 63.793 13.5833 63.7264 13.75C63.693 13.8833 63.6597 13.9833 63.6264 14.05C63.5597 14.15 63.493 14.7333 63.4264 15.8C63.393 16.8667 63.3597 18.1333 63.3264 19.6C63.293 21.0667 63.2764 22.6 63.2764 24.2C63.2764 25.7667 63.3264 27.1333 63.4264 28.3C63.5264 29.2667 63.7764 30.2167 64.1764 31.15C64.6097 32.05 65.3097 32.6333 66.2764 32.9C67.0097 32.9667 67.693 32.8667 68.3264 32.6C68.993 32.3 69.493 31.8167 69.8264 31.15C70.193 30.3833 70.343 29.5833 70.2764 28.75C70.243 27.8833 70.3097 27.0333 70.4764 26.2C70.943 26.2667 71.4597 26.2833 72.0264 26.25C72.6264 26.2167 73.2264 26.2 73.8264 26.2C74.4264 26.2 75.0097 26.2167 75.5764 26.25C76.1764 26.2833 76.7097 26.3667 77.1764 26.5C77.743 28.2333 77.893 29.9667 77.6264 31.7C77.3597 33.4 76.7764 34.9333 75.8764 36.3C74.9764 37.6667 73.793 38.8 72.3264 39.7C70.893 40.5667 69.2597 41.0167 67.4264 41.05C66.2264 41.2167 64.993 41.2167 63.7264 41.05C62.4597 40.9167 61.2764 40.6 60.1764 40.1C59.0764 39.5667 58.143 38.8333 57.3764 37.9C56.643 36.9667 56.2097 35.8 56.0764 34.4C56.0097 33.2 55.9597 31.95 55.9264 30.65C55.893 29.35 55.8597 27.9 55.8264 26.3C55.8264 24.6667 55.8264 22.8333 55.8264 20.8C55.8597 18.7333 55.893 16.35 55.9264 13.65C55.8597 13.0833 55.8764 12.5167 55.9764 11.95C56.1097 11.35 56.2764 10.8 56.4764 10.3C56.7764 9.43333 57.143 8.63333 57.5764 7.9C58.043 7.16667 58.593 6.51667 59.2264 5.95C59.593 5.68333 59.993 5.46666 60.4264 5.3C60.8597 5.1 61.3097 4.93333 61.7764 4.8C63.3097 4.3 64.8264 4.1 66.3264 4.2C67.8264 4.3 69.2264 4.65 70.5264 5.25C71.8597 5.81667 73.0597 6.58333 74.1264 7.55C75.193 8.51666 76.043 9.63333 76.6764 10.9C77.3097 12.1333 77.693 13.4833 77.8264 14.95C77.9597 16.4167 77.7597 17.9167 77.2264 19.45C75.993 19.7167 74.7764 19.8167 73.5764 19.75C72.4097 19.65 71.193 19.4833 69.9264 19.25C69.8264 18.6167 69.7597 17.9 69.7264 17.1C69.7264 16.3 69.643 15.5667 69.4764 14.9C69.3097 14.2 68.993 13.6333 68.5264 13.2C68.093 12.7667 67.393 12.5667 66.4264 12.6C65.993 12.6667 65.5264 12.75 65.0264 12.85ZM99.0904 5.15C99.7238 5.15 100.29 5.16667 100.79 5.2L102.14 40.2C101.574 40.3 100.957 40.3667 100.29 40.4C99.6571 40.4333 99.0238 40.45 98.3904 40.45C97.7904 40.45 97.1904 40.45 96.5904 40.45C96.0238 40.45 95.5404 40.4667 95.1404 40.5H95.0904C94.9238 39.4 94.8071 38.2667 94.7404 37.1C94.7071 35.9 94.6738 34.7167 94.6404 33.55C94.6404 32.3833 94.6238 31.2167 94.5904 30.05C94.5571 28.8833 94.4738 27.7667 94.3404 26.7L94.2904 26.65C93.3238 26.4833 92.3571 26.4 91.3904 26.4C90.4238 26.4 89.4571 26.5167 88.4904 26.75C88.3904 27.9167 88.3404 29.0667 88.3404 30.2C88.3738 31.3333 88.4071 32.4667 88.4404 33.6C88.4738 34.7333 88.4738 35.85 88.4404 36.95C88.4404 38.0167 88.3571 39.0833 88.1904 40.15C87.7904 40.3833 87.2571 40.5 86.5904 40.5C85.9238 40.5 85.2571 40.4667 84.5904 40.4C83.9238 40.3333 83.2904 40.2833 82.6904 40.25C82.1238 40.2167 81.6904 40.2833 81.3904 40.45C81.3238 39.5167 81.2404 38.25 81.1404 36.65C81.0738 35.0167 81.0071 33.2 80.9404 31.2C80.8738 29.1667 80.8071 27.0167 80.7404 24.75C80.7071 22.4833 80.6738 20.2167 80.6404 17.95C80.6071 15.65 80.5904 13.45 80.5904 11.35C80.6238 9.21667 80.6571 7.3 80.6904 5.6V5.55H80.7404H80.8404C81.3404 5.65 81.8571 5.68333 82.3904 5.65C82.9571 5.61667 83.5071 5.58333 84.0404 5.55C84.6071 5.51666 85.1571 5.5 85.6904 5.5C86.2238 5.5 86.7238 5.56666 87.1904 5.7C87.4904 8 87.6404 10.2333 87.6404 12.4C87.6404 14.5667 87.8404 16.7167 88.2404 18.85H88.2904C89.1238 19.05 90.0238 19.1167 90.9904 19.05C91.9571 18.95 92.8571 18.8667 93.6904 18.8H93.7404C93.9404 16.5 94.0404 14.35 94.0404 12.35C94.0738 10.35 94.0404 8.15 93.9404 5.75C94.3404 5.61666 94.8238 5.5 95.3904 5.4C95.9904 5.3 96.6071 5.23333 97.2404 5.2C97.8738 5.13333 98.4904 5.11667 99.0904 5.15ZM110.092 5.35C110.892 5.38333 112.042 5.38333 113.542 5.35H114.742V5.55C114.742 8.41666 114.692 11.3 114.592 14.2C114.525 17.1 114.458 20.0167 114.392 22.95C114.358 25.85 114.358 28.75 114.392 31.65C114.425 34.55 114.525 37.4167 114.692 40.25C114.425 40.5167 113.858 40.6667 112.992 40.7C112.158 40.7667 111.242 40.7833 110.242 40.75C109.275 40.7167 108.342 40.6667 107.442 40.6C106.542 40.5667 105.925 40.6 105.592 40.7C105.825 37.7 105.925 34.6833 105.892 31.65C105.858 28.6167 105.792 25.6167 105.692 22.65C105.625 19.65 105.575 16.7 105.542 13.8C105.542 10.8667 105.692 8 105.992 5.2V5.1C106.158 5.06666 106.475 5.08333 106.942 5.15C107.442 5.18333 107.808 5.2 108.042 5.2C108.642 5.23333 109.325 5.28333 110.092 5.35ZM139.43 35.05C139.43 35.3833 139.447 35.6833 139.48 35.95C139.547 37.15 139.58 38.0667 139.58 38.7C139.58 39.3 139.53 39.75 139.43 40.05C139.363 40.3167 139.23 40.4667 139.03 40.5C138.83 40.5 138.547 40.5 138.18 40.5C137.813 40.4667 137.33 40.4667 136.73 40.5C136.163 40.5333 135.18 40.5667 133.78 40.6C132.413 40.6333 130.513 40.65 128.08 40.65C125.68 40.65 122.463 40.6167 118.43 40.55V39.65C118.53 37.15 118.613 34.9 118.68 32.9C118.747 30.8667 118.78 28.9833 118.78 27.25C118.813 25.4833 118.83 23.7833 118.83 22.15C118.83 20.5167 118.813 18.85 118.78 17.15C118.747 15.45 118.713 13.65 118.68 11.75C118.647 9.81667 118.613 7.68333 118.58 5.35C118.913 5.21667 119.43 5.11667 120.13 5.05C120.83 4.95 121.58 4.9 122.38 4.9C123.18 4.9 123.963 4.95 124.73 5.05C125.497 5.15 126.113 5.3 126.58 5.5C126.513 7.66666 126.48 9.9 126.48 12.2C126.513 14.4667 126.547 16.75 126.58 19.05C126.613 21.35 126.63 23.65 126.63 25.95C126.663 28.2167 126.663 30.4167 126.63 32.55V32.6C126.863 32.5333 127.297 32.5167 127.93 32.55C128.597 32.55 129.363 32.5667 130.23 32.6C131.097 32.6333 132.013 32.6833 132.98 32.75C133.98 32.7833 134.913 32.8167 135.78 32.85C136.68 32.8833 137.463 32.9167 138.13 32.95C138.83 32.95 139.313 32.9333 139.58 32.9C139.58 33.2667 139.563 33.6333 139.53 34C139.497 34.3333 139.463 34.6833 139.43 35.05ZM162.477 35.05C162.477 35.3833 162.493 35.6833 162.527 35.95C162.593 37.15 162.627 38.0667 162.627 38.7C162.627 39.3 162.577 39.75 162.477 40.05C162.41 40.3167 162.277 40.4667 162.077 40.5C161.877 40.5 161.593 40.5 161.227 40.5C160.86 40.4667 160.377 40.4667 159.777 40.5C159.21 40.5333 158.227 40.5667 156.827 40.6C155.46 40.6333 153.56 40.65 151.127 40.65C148.727 40.65 145.51 40.6167 141.477 40.55V39.65C141.577 37.15 141.66 34.9 141.727 32.9C141.793 30.8667 141.827 28.9833 141.827 27.25C141.86 25.4833 141.877 23.7833 141.877 22.15C141.877 20.5167 141.86 18.85 141.827 17.15C141.793 15.45 141.76 13.65 141.727 11.75C141.693 9.81667 141.66 7.68333 141.627 5.35C141.96 5.21667 142.477 5.11667 143.177 5.05C143.877 4.95 144.627 4.9 145.427 4.9C146.227 4.9 147.01 4.95 147.777 5.05C148.543 5.15 149.16 5.3 149.627 5.5C149.56 7.66666 149.527 9.9 149.527 12.2C149.56 14.4667 149.593 16.75 149.627 19.05C149.66 21.35 149.677 23.65 149.677 25.95C149.71 28.2167 149.71 30.4167 149.677 32.55V32.6C149.91 32.5333 150.343 32.5167 150.977 32.55C151.643 32.55 152.41 32.5667 153.277 32.6C154.143 32.6333 155.06 32.6833 156.027 32.75C157.027 32.7833 157.96 32.8167 158.827 32.85C159.727 32.8833 160.51 32.9167 161.177 32.95C161.877 32.95 162.36 32.9333 162.627 32.9C162.627 33.2667 162.61 33.6333 162.577 34C162.543 34.3333 162.51 34.6833 162.477 35.05Z" fill="white"/>
</svg>
