<svg width="52" height="45" viewBox="0 0 52 45" fill="none" xmlns="http://www.w3.org/2000/svg">
<rect x="0.5" y="0.5" width="51" height="44" rx="22" stroke="#C1C2C4"/>
<path d="M19.162 27.776V29H12.25V27.776H15.013V18.983C15.013 18.719 15.022 18.452 15.04 18.182L12.745 20.153C12.667 20.219 12.589 20.261 12.511 20.279C12.433 20.291 12.361 20.291 12.295 20.279C12.229 20.267 12.166 20.243 12.106 20.207C12.052 20.171 12.01 20.132 11.98 20.09L11.476 19.397L15.319 16.076H16.624V27.776H19.162ZM25.8614 27.866C26.2814 27.866 26.6564 27.809 26.9864 27.695C27.3224 27.575 27.6044 27.41 27.8324 27.2C28.0664 26.984 28.2434 26.729 28.3634 26.435C28.4894 26.135 28.5524 25.805 28.5524 25.445C28.5524 25.001 28.4774 24.623 28.3274 24.311C28.1834 23.993 27.9854 23.735 27.7334 23.537C27.4874 23.339 27.2024 23.195 26.8784 23.105C26.5544 23.009 26.2154 22.961 25.8614 22.961C25.5074 22.961 25.1684 23.009 24.8444 23.105C24.5204 23.195 24.2324 23.339 23.9804 23.537C23.7344 23.735 23.5364 23.993 23.3864 24.311C23.2424 24.623 23.1704 25.001 23.1704 25.445C23.1704 25.805 23.2304 26.135 23.3504 26.435C23.4764 26.729 23.6534 26.984 23.8814 27.2C24.1154 27.41 24.3974 27.575 24.7274 27.695C25.0634 27.809 25.4414 27.866 25.8614 27.866ZM25.8614 17.201C25.4774 17.201 25.1384 17.258 24.8444 17.372C24.5564 17.486 24.3134 17.642 24.1154 17.84C23.9234 18.038 23.7764 18.269 23.6744 18.533C23.5784 18.797 23.5304 19.079 23.5304 19.379C23.5304 19.673 23.5724 19.958 23.6564 20.234C23.7404 20.51 23.8754 20.756 24.0614 20.972C24.2474 21.182 24.4874 21.353 24.7814 21.485C25.0814 21.611 25.4414 21.674 25.8614 21.674C26.2814 21.674 26.6384 21.611 26.9324 21.485C27.2324 21.353 27.4754 21.182 27.6614 20.972C27.8474 20.756 27.9824 20.51 28.0664 20.234C28.1504 19.958 28.1924 19.673 28.1924 19.379C28.1924 19.079 28.1414 18.797 28.0394 18.533C27.9434 18.269 27.7964 18.038 27.5984 17.84C27.4064 17.642 27.1634 17.486 26.8694 17.372C26.5814 17.258 26.2454 17.201 25.8614 17.201ZM27.7064 22.277C28.5104 22.505 29.1284 22.886 29.5604 23.42C29.9924 23.954 30.2084 24.638 30.2084 25.472C30.2084 26.036 30.1004 26.546 29.8844 27.002C29.6744 27.452 29.3774 27.836 28.9934 28.154C28.6154 28.472 28.1594 28.718 27.6254 28.892C27.0914 29.06 26.5034 29.144 25.8614 29.144C25.2194 29.144 24.6314 29.06 24.0974 28.892C23.5634 28.718 23.1044 28.472 22.7204 28.154C22.3364 27.836 22.0394 27.452 21.8294 27.002C21.6194 26.546 21.5144 26.036 21.5144 25.472C21.5144 24.638 21.7304 23.954 22.1624 23.42C22.5944 22.886 23.2124 22.505 24.0164 22.277C23.3384 22.025 22.8254 21.65 22.4774 21.152C22.1354 20.648 21.9644 20.048 21.9644 19.352C21.9644 18.878 22.0574 18.434 22.2434 18.02C22.4294 17.606 22.6934 17.246 23.0354 16.94C23.3774 16.634 23.7854 16.394 24.2594 16.22C24.7394 16.046 25.2734 15.959 25.8614 15.959C26.4434 15.959 26.9744 16.046 27.4544 16.22C27.9344 16.394 28.3454 16.634 28.6874 16.94C29.0294 17.246 29.2934 17.606 29.4794 18.02C29.6654 18.434 29.7584 18.878 29.7584 19.352C29.7584 20.048 29.5844 20.648 29.2364 21.152C28.8944 21.65 28.3844 22.025 27.7064 22.277ZM40.8228 23.564H37.1508V27.434H35.8458V23.564H32.1918V22.349H35.8458V18.506H37.1508V22.349H40.8228V23.564Z" fill="#C1C2C4"/>
</svg>
