<svg width="44" height="44" viewBox="0 0 44 44" fill="none" xmlns="http://www.w3.org/2000/svg">
<rect x="0.5" y="0.5" width="43" height="43" rx="21.5" stroke="#C1C2C4"/>
<path d="M22 14L19.91 16.09L22 18.18M14.27 13L13 14.27L17.73 19H13V25H17L22 30V23.27L26.25 27.53C25.58 28.04 24.83 28.46 24 28.7V30.77C25.38 30.45 26.63 29.82 27.68 28.96L29.73 31L31 29.73L22 20.73M29 22C29 22.94 28.8 23.82 28.46 24.64L29.97 26.15C30.62 24.91 31 23.5 31 22C31 17.72 28 14.14 24 13.23V15.29C26.89 16.15 29 18.83 29 22ZM26.5 22C26.5 20.23 25.5 18.71 24 17.97V20.18L26.45 22.63C26.5 22.43 26.5 22.21 26.5 22Z" fill="#C1C2C4"/>
</svg>
