<svg width="20" height="21" viewBox="0 0 20 21" fill="none" xmlns="http://www.w3.org/2000/svg">
<path d="M9.85801 8L12.4997 10.6333C12.4997 10.5917 12.4997 10.5417 12.4997 10.5C12.4997 9.83696 12.2363 9.20107 11.7674 8.73223C11.2986 8.26339 10.6627 8 9.99967 8C9.94967 8 9.90801 8 9.85801 8ZM6.27467 8.66667L7.56634 9.95833C7.52467 10.1333 7.49967 10.3083 7.49967 10.5C7.49967 11.163 7.76307 11.7989 8.23191 12.2678C8.70075 12.7366 9.33663 13 9.99967 13C10.183 13 10.3663 12.975 10.5413 12.9333L11.833 14.225C11.2747 14.5 10.658 14.6667 9.99967 14.6667C8.89461 14.6667 7.8348 14.2277 7.0534 13.4463C6.272 12.6649 5.83301 11.6051 5.83301 10.5C5.83301 9.84167 5.99967 9.225 6.27467 8.66667ZM1.66634 4.05833L3.56634 5.95833L3.94134 6.33333C2.56634 7.41667 1.48301 8.83333 0.833008 10.5C2.27467 14.1583 5.83301 16.75 9.99967 16.75C11.2913 16.75 12.5247 16.5 13.6497 16.05L14.008 16.4L16.4413 18.8333L17.4997 17.775L2.72467 3M9.99967 6.33333C11.1047 6.33333 12.1646 6.77232 12.946 7.55372C13.7274 8.33512 14.1663 9.39493 14.1663 10.5C14.1663 11.0333 14.058 11.55 13.8663 12.0167L16.308 14.4583C17.558 13.4167 18.558 12.05 19.1663 10.5C17.7247 6.84167 14.1663 4.25 9.99967 4.25C8.83301 4.25 7.71634 4.45833 6.66634 4.83333L8.47467 6.625C8.94967 6.44167 9.45801 6.33333 9.99967 6.33333Z" fill="#9D9EA1"/>
</svg>
